<?xml version="1.0" encoding="utf-8"?>
<!-- Generator: Adobe Illustrator 27.7.0, SVG Export Plug-In . SVG Version: 6.00 Build 0)  -->
<svg version="1.1" id="图层_1" xmlns="http://www.w3.org/2000/svg" xmlns:xlink="http://www.w3.org/1999/xlink" x="0px" y="0px"
	 viewBox="0 0 1700.79 2267.72" style="enable-background:new 0 0 1700.79 2267.72;" xml:space="preserve">
<style type="text/css">
	.st0{fill:#F5BE6D;}
	.st1{fill:#A7C45F;}
	.st2{fill:#E44265;}
	.st3{fill:#64BCC1;}
</style>
<path class="st0" d="M727.98,1858.83l-27.01,12.26c-0.66,0.3-1.12,0.92-1.22,1.64l-2.26,16.63c-0.22,1.62,1.41,2.86,2.92,2.22
	l26.64-11.38c0.67-0.29,1.15-0.9,1.26-1.62l2.63-17.5C731.19,1859.41,729.51,1858.14,727.98,1858.83z"/>
<path class="st1" d="M667.25,1857.14l8.17,28.52c0.2,0.7,0.74,1.24,1.44,1.44l16.12,4.67c1.57,0.46,3.04-0.98,2.62-2.56l-7.36-28.02
	c-0.19-0.71-0.72-1.27-1.42-1.48l-16.93-5.17C668.29,1854.06,666.79,1855.53,667.25,1857.14z"/>
<path class="st2" d="M675.36,1892.02l8.17,28.52c0.2,0.7,0.74,1.24,1.44,1.44l16.12,4.67c1.57,0.46,3.04-0.98,2.62-2.56l-7.36-28.02
	c-0.19-0.71-0.72-1.27-1.42-1.48l-16.93-5.17C676.4,1888.94,674.9,1890.41,675.36,1892.02z"/>
<path class="st3" d="M743.5,1903.44l-24.61-16.56c-0.6-0.4-1.37-0.47-2.03-0.18l-15.34,6.81c-1.5,0.66-1.7,2.7-0.36,3.65l23.67,16.7
	c0.6,0.42,1.37,0.5,2.04,0.22l16.28-6.94C744.69,1906.47,744.89,1904.37,743.5,1903.44z"/>
</svg>
