<?xml version="1.0" encoding="UTF-8"?><svg xmlns="http://www.w3.org/2000/svg" version="1.2" baseProfile="tiny" viewBox="0 0 107 90" width="107px" height="90px"><rect width="1" height="1" x="86" y="56" fill="#00a6b9"/><g fill="#00a8bb"><rect y="27" width="1" height="1" x="15"/><rect width="1" height="1" x="21" y="44"/><rect x="77" y="45" width="1" height="1"/><rect width="1" height="1" x="83" y="46"/><rect y="54" width="1" height="1" x="53"/><rect width="1" height="1" x="11" y="57"/><rect y="57" width="1" height="1" x="101"/></g><g fill="#03aabc"><rect x="44" y="49" width="1" height="1"/><rect height="1" x="68" y="60" width="1"/></g><g fill="#00aaba"><rect y="35" width="1" height="1" x="39"/><rect x="11" y="51" width="1" height="1"/><rect x="57" y="56" width="1" height="1"/><rect y="61" width="1" height="1" x="66"/></g><rect y="56" width="1" height="1" x="88" fill="#00aab5"/><g fill="#00a6be"><rect y="36" width="1" height="1" x="69"/><rect width="1" height="1" x="70" y="37"/><rect x="61" y="62" width="1" height="1"/></g><g fill="#00a7ba"><rect y="27" width="1" height="1" x="13"/><rect width="1" height="1" x="18" y="28"/><rect x="54" y="28" width="1" height="1"/><rect height="1" x="18" y="30" width="1"/><rect x="19" y="45" width="1" height="1"/><rect width="1" height="1" x="77" y="46"/><rect x="23" y="47" width="1" height="1"/><rect width="1" height="1" x="11" y="50"/><rect height="1" x="27" y="52" width="1"/><rect x="52" y="53" width="1" height="1"/><rect y="57" width="1" height="1" x="77"/></g><g fill="#009f9f"><rect y="33" width="1" height="1" x="18"/><rect x="83" y="53" width="1" height="1"/></g><g fill="#00a9bc"><rect width="1" height="1" x="70" y="30"/><rect x="77" y="49" width="1" height="1"/><rect height="4" x="11" y="53" width="1"/><rect width="1" height="1" x="77" y="53"/><rect x="99" y="56" width="1" height="1"/><rect x="79" y="61" width="1" height="1"/></g><g fill="#00a7b9"><rect width="1" height="1" x="73" y="33"/><rect height="1" x="44" y="40" width="1"/><rect x="32" y="58" width="1" height="1"/><rect x="62" y="62" width="1" height="1"/></g><rect y="56" width="1" height="1" x="91" fill="#009faf"/><g fill="#00a8bd"><rect x="59" y="27" width="1" height="1"/><rect x="84" y="28" width="1" height="1"/><rect x="64" y="33" width="1" height="1"/><rect x="46" y="35" width="1" height="1"/><rect height="1" x="22" y="37" width="1"/><rect x="20" y="38" width="1" height="1"/><rect height="1" x="50" y="40" width="1"/><rect height="1" x="83" y="48" width="1"/><rect x="77" y="51" width="1" height="1"/><rect x="11" y="52" width="1" height="1"/><rect x="77" y="56" width="1" height="1"/><rect height="1" x="96" y="56" width="1"/><rect width="1" height="1" x="37" y="61"/><rect x="60" y="62" width="1" height="1"/></g><g fill="#00a9bb"><rect height="1" x="62" y="27" width="1"/><rect x="80" y="27" width="1" height="1"/><rect y="33" width="1" height="1" x="78"/><rect x="11" y="60" width="1" height="1"/></g><g fill="#00a5b4"><rect y="52" width="1" height="1" x="70"/><rect y="56" width="1" height="1" x="92"/></g><g fill="#03abbd"><rect x="71" y="31" width="1" height="1"/><rect x="59" y="32" width="1" height="1"/><rect y="36" width="1" height="1" x="37"/><rect width="1" height="1" x="25" y="42"/><rect x="49" y="42" width="1" height="1"/><rect x="83" y="42" width="1" height="1"/><rect x="25" y="44" width="1" height="1"/><rect y="44" width="1" height="1" x="26"/><rect x="72" y="52" width="1" height="1"/><rect x="68" y="54" width="1" height="1"/><rect x="64" y="56" width="1" height="1"/></g><g fill="#00a7bc"><rect x="77" y="48" width="1" height="1"/><rect y="55" width="1" height="1" x="37"/></g><g fill="#00aabe"><rect x="38" y="30" width="1" height="1"/><rect y="33" width="1" height="1" x="12"/><rect y="44" width="1" height="1" x="27"/><rect x="69" y="53" width="1" height="1"/><rect x="77" y="54" width="1" height="1"/><rect height="1" x="100" y="56" width="1"/><rect height="1" x="11" y="58" width="1"/><rect x="49" y="58" width="1" height="1"/><rect y="62" width="1" height="1" x="59"/></g><g fill="#03abbe"><rect width="1" height="1" x="13" y="28"/><rect x="14" y="28" width="3" height="17"/><rect height="1" x="56" y="28" width="1"/><rect x="58" y="28" width="6" height="3"/><rect x="65" y="28" width="1" height="1"/><rect height="1" x="80" y="28" width="3"/><rect y="29" width="1" height="6" x="17"/><rect x="55" y="29" width="1" height="3"/><rect width="8" height="2" x="57" y="29"/><rect height="4" x="66" y="29" width="1"/><rect y="29" width="1" height="1" x="79"/><rect height="3" x="81" y="29" width="3"/><rect x="54" y="30" width="14" height="1"/><rect y="30" width="4" height="2" x="80"/><rect x="13" y="31" width="5" height="4"/><rect x="38" y="31" width="1" height="3"/><rect x="39" y="31" width="1" height="1"/><rect x="51" y="31" width="1" height="4"/><rect x="53" y="31" width="6" height="1"/><rect x="63" y="31" width="6" height="1"/><rect height="1" x="39" y="32" width="1"/><rect x="52" y="32" width="3" height="1"/><rect width="1" height="1" x="56" y="32"/><rect height="1" x="57" y="32" width="1"/><rect y="32" width="1" height="1" x="62"/><rect x="64" y="32" width="1" height="1"/><rect y="32" width="3" height="1" x="67"/><rect x="79" y="32" width="4" height="4"/><rect width="1" height="5" x="33" y="33"/><rect width="4" height="1" x="35" y="33"/><rect x="50" y="33" width="4" height="1"/><rect x="68" y="33" width="3" height="1"/><rect x="31" y="34" width="1" height="5"/><rect x="34" y="34" width="4" height="1"/><rect y="34" width="1" height="1" x="39"/><rect y="34" width="1" height="1" x="40"/><rect y="34" width="4" height="1" x="48"/><rect x="70" y="34" width="2" height="1"/><rect width="4" height="2" x="13" y="35"/><rect width="1" height="5" x="29" y="35"/><rect height="1" x="32" y="35" width="4"/><rect x="37" y="35" width="1" height="1"/><rect y="35" width="3" height="2" x="48"/><rect x="53" y="35" width="1" height="1"/><rect y="35" width="1" height="2" x="71"/><rect y="36" width="4" height="1" x="30"/><rect height="1" x="35" y="36" width="1"/><rect x="46" y="36" width="1" height="1"/><rect x="51" y="36" width="1" height="1"/><rect x="80" y="36" width="2" height="24"/><rect height="1" x="13" y="37" width="1"/><rect y="37" width="6" height="1" x="26"/><rect y="37" width="4" height="1" x="46"/><rect y="38" width="6" height="1" x="24"/><rect x="47" y="38" width="3" height="1"/><rect x="78" y="38" width="1" height="1"/><rect height="1" x="22" y="39" width="6"/><rect y="39" width="3" height="3" x="46"/><rect height="21" x="79" y="39" width="3"/><rect y="40" width="6" height="1" x="20"/><rect x="27" y="40" width="1" height="1"/><rect height="1" x="45" y="40" width="5"/><rect height="20" x="82" y="40" width="1"/><rect x="13" y="41" width="4" height="4"/><rect x="18" y="41" width="6" height="1"/><rect height="1" x="25" y="41" width="1"/><rect x="45" y="41" width="4" height="1"/><rect x="17" y="42" width="5" height="1"/><rect height="1" x="23" y="42" width="1"/><rect height="9" x="46" y="42" width="2"/><rect y="42" width="5" height="18" x="78"/><rect x="17" y="43" width="3" height="1"/><rect y="43" width="1" height="1" x="21"/><rect y="44" width="1" height="2" x="17"/><rect x="19" y="44" width="1" height="1"/><rect height="1" x="20" y="44" width="1"/><rect height="3" x="45" y="44" width="4"/><rect x="13" y="45" width="3" height="13"/><rect x="25" y="45" width="1" height="2"/><rect x="12" y="46" width="5" height="9"/><rect height="1" x="24" y="46" width="3"/><rect x="28" y="46" width="1" height="5"/><rect x="44" y="46" width="1" height="1"/><rect x="26" y="47" width="4" height="1"/><rect x="25" y="48" width="4" height="1"/><rect x="49" y="48" width="1" height="1"/><rect width="3" height="1" x="27" y="49"/><rect width="4" height="2" x="45" y="49"/><rect width="2" height="2" x="29" y="50"/><rect x="49" y="50" width="1" height="1"/><rect width="1" height="4" x="31" y="51"/><rect x="47" y="51" width="2" height="2"/><rect x="30" y="52" width="3" height="3"/><rect x="46" y="52" width="5" height="1"/><rect height="1" x="71" y="52" width="1"/><rect width="5" height="1" x="29" y="53"/><rect x="48" y="53" width="3" height="2"/><rect x="33" y="54" width="3" height="1"/><rect width="4" height="1" x="47" y="54"/><rect x="71" y="54" width="3" height="2"/><rect x="12" y="55" width="4" height="3"/><rect width="3" height="1" x="32" y="55"/><rect height="1" x="47" y="55" width="1"/><rect y="55" width="3" height="1" x="49"/><rect height="1" x="67" y="55" width="1"/><rect y="55" width="1" height="5" x="68"/><rect y="55" width="4" height="1" x="70"/><rect height="1" x="31" y="56" width="1"/><rect x="33" y="56" width="3" height="1"/><rect x="50" y="56" width="4" height="1"/><rect y="56" width="1" height="1" x="54"/><rect y="56" width="1" height="5" x="66"/><rect x="69" y="56" width="4" height="1"/><rect height="1" x="34" y="57" width="3"/><rect x="51" y="57" width="4" height="1"/><rect height="4" x="57" y="57" width="1"/><rect height="3" x="63" y="57" width="2"/><rect height="1" x="67" y="57" width="3"/><rect x="71" y="57" width="1" height="1"/><rect y="57" width="18" height="3" x="83"/><rect height="3" x="12" y="58" width="3"/><rect width="4" height="1" x="35" y="58"/><rect height="1" x="52" y="58" width="17"/><rect y="59" width="1" height="2" x="36"/><rect x="38" y="59" width="1" height="1"/><rect x="52" y="59" width="1" height="1"/><rect y="59" width="13" height="1" x="54"/><rect y="60" width="1" height="1" x="54"/><rect x="58" y="60" width="6" height="1"/><rect x="79" y="60" width="2" height="1"/><rect width="12" height="1" x="84" y="60"/><rect x="99" y="60" width="2" height="1"/><rect width="1" height="1" x="14" y="61"/><rect width="5" height="1" x="58" y="61"/><rect x="83" y="61" width="1" height="1"/></g><g fill="#00a7b7"><rect width="1" height="1" x="52" y="29"/><rect width="1" height="1" x="11" y="48"/><rect height="1" x="87" y="56" width="1"/></g><rect height="1" fill="#02acbd" x="40" y="33" width="1"/><g fill="#000"><rect x="63" y="33" width="1" height="1"/><rect x="38" y="36" width="1" height="1"/><rect width="1" height="1" x="22" y="44"/><rect height="1" x="24" y="44" width="1"/><rect width="1" height="1" x="71" y="51"/><rect x="101" y="56" width="1" height="1"/><rect x="67" y="61" width="1" height="1"/></g><g fill="#02abbf"><rect width="1" height="1" x="30" y="39"/><rect y="58" width="1" height="1" x="50"/></g><g fill="#00a6bc"><rect x="83" y="47" width="1" height="1"/><rect width="1" height="1" x="38" y="56"/><rect height="1" x="47" y="56" width="1"/><rect width="1" height="1" x="94" y="56"/><rect height="1" x="97" y="56" width="1"/><rect width="1" height="1" x="77" y="60"/></g><rect x="17" y="51" width="1" height="1" fill="#00a9ba"/><g fill="#03abbc"><rect height="1" x="60" y="27" width="1"/><rect height="1" x="12" y="35" width="1"/><rect height="1" x="17" y="49" width="1"/></g><g fill="#00aab8"><rect y="28" width="1" height="1" x="67"/><rect height="1" x="84" y="29" width="1"/><rect x="83" y="50" width="1" height="1"/><rect x="55" y="55" width="1" height="1"/><rect y="56" width="1" height="1" x="90"/><rect x="33" y="59" width="1" height="1"/><rect x="34" y="60" width="1" height="1"/></g><g fill="#02abbd"><rect x="64" y="28" width="1" height="1"/><rect width="1" height="1" x="65" y="29"/><rect height="1" x="52" y="30" width="1"/><rect y="31" width="2" height="1" x="69"/><rect x="79" y="31" width="1" height="1"/><rect x="60" y="32" width="1" height="1"/><rect x="34" y="33" width="1" height="1"/><rect x="65" y="33" width="1" height="1"/><rect y="34" width="1" height="1" x="32"/><rect x="38" y="34" width="1" height="1"/><rect width="1" height="1" x="47" y="35"/><rect height="1" x="12" y="36" width="1"/><rect x="17" y="36" width="1" height="1"/><rect width="1" height="1" x="12" y="37"/><rect y="37" width="1" height="1" x="71"/><rect x="78" y="37" width="1" height="1"/><rect width="1" height="1" x="13" y="38"/><rect y="38" width="1" height="1" x="46"/><rect x="12" y="39" width="1" height="1"/><rect width="1" height="1" x="20" y="39"/><rect width="1" height="1" x="18" y="40"/><rect y="41" width="1" height="1" x="49"/><rect height="1" x="22" y="42" width="1"/><rect height="1" x="20" y="43" width="1"/><rect y="44" width="1" height="1" x="18"/><rect x="17" y="46" width="1" height="1"/><rect x="23" y="46" width="1" height="1"/><rect y="47" width="1" height="1" x="48"/><rect height="1" x="24" y="48" width="1"/><rect height="1" x="45" y="48" width="1"/><rect x="25" y="49" width="1" height="1"/><rect height="1" x="31" y="49" width="1"/><rect y="50" width="1" height="1" x="27"/><rect width="1" height="1" x="32" y="50"/><rect width="1" height="2" x="28" y="51"/><rect x="51" y="52" width="1" height="1"/><rect width="1" height="1" x="51" y="53"/><rect y="54" width="1" height="1" x="36"/><rect x="69" y="54" width="1" height="1"/><rect y="54" width="1" height="1" x="70"/><rect height="2" x="36" y="55" width="1"/><rect width="1" height="1" x="54" y="55"/><rect x="56" y="56" width="1" height="1"/><rect x="67" y="56" width="1" height="1"/><rect width="1" height="1" x="33" y="57"/><rect x="58" y="57" width="1" height="1"/><rect width="1" height="1" x="34" y="58"/><rect width="1" height="1" x="16" y="59"/><rect height="1" x="35" y="59" width="1"/><rect x="37" y="60" width="1" height="1"/><rect height="1" x="12" y="61" width="1"/><rect width="1" height="1" x="15" y="61"/><rect x="36" y="61" width="1" height="1"/><rect width="1" height="1" x="63" y="61"/><rect width="1" height="1" x="82" y="61"/><rect x="84" y="61" width="1" height="1"/><rect x="85" y="61" width="1" height="1"/><rect x="89" y="61" width="1" height="1"/></g><g fill="#02aabd"><rect width="1" height="1" x="53" y="29"/><rect height="1" x="59" y="31" width="1"/><rect x="62" y="31" width="1" height="1"/><rect x="50" y="32" width="1" height="1"/><rect height="1" x="61" y="32" width="1"/><rect height="1" x="65" y="32" width="1"/><rect x="49" y="33" width="1" height="1"/><rect x="52" y="34" width="1" height="1"/><rect height="1" x="30" y="35" width="1"/><rect width="1" height="1" x="38" y="35"/><rect x="78" y="35" width="1" height="1"/><rect x="25" y="36" width="1" height="1"/><rect x="34" y="36" width="1" height="1"/><rect height="1" x="32" y="37" width="1"/><rect height="1" x="50" y="37" width="1"/><rect x="51" y="37" width="1" height="1"/><rect width="1" height="1" x="21" y="38"/><rect x="30" y="38" width="1" height="1"/><rect x="33" y="38" width="1" height="1"/><rect x="21" y="39" width="1" height="1"/><rect y="39" width="1" height="1" x="28"/><rect y="39" width="1" height="1" x="31"/><rect height="1" x="49" y="39" width="1"/><rect x="78" y="39" width="1" height="1"/><rect height="1" x="19" y="40" width="1"/><rect height="1" x="26" y="40" width="1"/><rect x="17" y="41" width="1" height="1"/><rect y="42" width="1" height="1" x="12"/><rect y="42" width="1" height="1" x="48"/><rect width="1" height="1" x="49" y="43"/><rect height="1" x="12" y="44" width="1"/><rect y="44" width="1" height="1" x="49"/><rect width="1" height="1" x="16" y="45"/><rect y="45" width="1" height="1" x="26"/><rect x="49" y="47" width="1" height="1"/><rect x="48" y="48" width="1" height="1"/><rect y="49" width="1" height="1" x="30"/><rect y="51" width="1" height="1" x="32"/><rect height="1" x="47" y="53" width="1"/><rect height="1" x="71" y="53" width="1"/><rect width="1" height="1" x="74" y="54"/><rect height="1" x="69" y="55" width="1"/><rect x="16" y="57" width="1" height="1"/><rect height="1" x="50" y="57" width="1"/><rect y="57" width="1" height="1" x="65"/><rect width="1" height="1" x="39" y="58"/><rect y="58" width="1" height="1" x="69"/><rect x="71" y="58" width="1" height="1"/><rect y="59" width="1" height="1" x="53"/><rect y="59" width="1" height="1" x="67"/><rect x="69" y="59" width="1" height="1"/><rect width="1" height="1" x="101" y="59"/><rect x="15" y="60" width="1" height="1"/><rect width="1" height="1" x="65" y="60"/><rect y="60" width="1" height="1" x="98"/><rect x="95" y="61" width="1" height="1"/><rect y="61" width="1" height="1" x="98"/></g><g fill="#00a6b3"><rect width="1" height="1" x="18" y="31"/><rect x="89" y="56" width="1" height="1"/><rect y="57" width="1" height="1" x="31"/></g><g fill="#03aabd"><rect x="50" y="31" width="1" height="1"/><rect y="36" width="1" height="1" x="72"/><rect x="83" y="36" width="1" height="1"/><rect x="83" y="37" width="1" height="1"/><rect height="1" x="12" y="40" width="1"/><rect y="43" width="1" height="1" x="44"/><rect x="18" y="45" width="1" height="1"/><rect width="1" height="1" x="34" y="52"/><rect x="73" y="53" width="1" height="1"/><rect x="46" y="54" width="1" height="1"/><rect x="38" y="57" width="1" height="1"/><rect x="16" y="58" width="1" height="1"/><rect y="60" width="1" height="1" x="53"/><rect x="16" y="61" width="1" height="1"/><rect width="1" height="1" x="96" y="61"/><rect x="97" y="61" width="1" height="1"/></g><g fill="#00a5bc"><rect width="1" height="1" x="18" y="39"/><rect x="44" y="50" width="1" height="1"/><rect height="1" x="26" y="51" width="1"/><rect x="54" y="61" width="1" height="1"/></g><g fill="teal"><rect x="64" y="27" width="1" height="1"/><rect height="1" x="50" y="30" width="1"/><rect x="30" y="33" width="1" height="1"/><rect width="1" height="1" x="47" y="33"/><rect x="18" y="34" width="1" height="1"/><rect height="1" x="74" y="34" width="1"/><rect height="1" x="26" y="42" width="1"/><rect y="45" width="1" height="1" x="23"/><rect x="83" y="55" width="1" height="1"/><rect x="39" y="57" width="1" height="1"/><rect x="69" y="60" width="1" height="1"/><rect width="1" height="1" x="14" y="62"/></g><g fill="#00a8be"><rect width="1" height="1" x="81" y="27"/><rect height="1" x="11" y="61" width="1"/></g><g fill="#00a9bd"><rect y="27" width="1" height="1" x="14"/><rect x="77" y="52" width="1" height="1"/><rect x="77" y="55" width="1" height="1"/><rect y="61" width="1" height="1" x="100"/></g><rect height="1" x="18" y="29" fill="#00a5bd" width="1"/><g fill="#00a4b6"><rect x="69" y="29" width="1" height="1"/><rect x="35" y="31" width="1" height="1"/><rect y="32" width="1" height="1" x="12"/><rect x="18" y="32" width="1" height="1"/><rect x="24" y="36" width="1" height="1"/><rect x="77" y="44" width="1" height="1"/><rect y="53" width="1" height="1" x="17"/></g><g fill="#099"><rect x="40" y="31" width="1" height="1"/><rect x="44" y="39" width="1" height="1"/><rect height="1" x="83" y="54" width="1"/><rect x="58" y="56" width="1" height="1"/></g><g fill="#00a8bc"><rect height="1" x="78" y="32" width="1"/><rect x="83" y="44" width="1" height="1"/><rect x="66" y="55" width="1" height="1"/></g><rect y="34" width="1" height="1" fill="#009db1" x="28"/><rect height="1" fill="#03acbf" x="83" y="35" width="1"/><g fill="#03a9be"><rect y="37" width="1" height="1" x="35"/><rect width="1" height="1" x="83" y="43"/><rect width="1" height="1" x="74" y="55"/><rect x="101" y="60" width="1" height="1"/></g><g fill="#03a9bd"><rect x="61" y="27" width="1" height="1"/><rect x="31" y="33" width="1" height="1"/><rect width="1" height="1" x="78" y="34"/><rect height="1" x="23" y="43" width="1"/><rect width="1" height="1" x="83" y="56"/><rect y="58" width="1" height="1" x="101"/><rect x="39" y="59" width="1" height="1"/></g><g fill="#02a9bd"><rect y="28" width="1" height="1" x="55"/><rect width="1" height="1" x="79" y="28"/><rect x="40" y="32" width="1" height="1"/><rect height="1" x="78" y="36" width="1"/><rect width="1" height="1" x="23" y="37"/><rect y="39" width="1" height="1" x="19"/><rect x="45" y="52" width="1" height="1"/><rect y="61" width="1" height="1" x="81"/></g><g fill="#00aabd"><rect x="83" y="45" width="1" height="1"/><rect x="85" y="56" width="1" height="1"/><rect width="1" height="1" x="95" y="56"/></g><g fill="#02abbc"><rect width="1" height="1" x="51" y="30"/><rect x="52" y="36" width="1" height="1"/><rect x="27" y="41" width="1" height="1"/><rect x="28" y="45" width="1" height="1"/><rect x="17" y="47" width="1" height="1"/><rect width="1" height="1" x="50" y="50"/><rect y="53" width="1" height="1" x="28"/><rect y="59" width="1" height="1" x="51"/></g><g fill="#0099b3"><rect x="11" y="46" width="1" height="1"/><rect x="30" y="56" width="1" height="1"/></g><rect x="17" y="50" width="1" height="1" fill="#00a9be"/><g fill="#00aabc"><rect y="27" width="1" height="1" x="58"/><rect y="27" width="1" height="1" x="63"/><rect y="34" width="1" height="1" x="12"/><rect y="35" width="1" height="1" x="68"/><rect height="1" x="45" y="37" width="1"/><rect x="77" y="47" width="1" height="1"/><rect height="1" x="11" y="49" width="1"/><rect width="1" height="1" x="32" y="49"/><rect x="77" y="50" width="1" height="1"/><rect x="84" y="56" width="1" height="1"/><rect y="56" width="1" height="1" x="98"/><rect x="77" y="58" width="1" height="1"/><rect height="1" x="52" y="60" width="1"/></g><g fill="#00a2b9"><rect height="1" x="83" y="27" width="1"/><rect height="1" x="55" y="34" width="1"/><rect height="1" x="51" y="38" width="1"/><rect width="1" height="1" x="11" y="47"/><rect x="25" y="50" width="1" height="1"/><rect height="1" x="17" y="54" width="1"/><rect x="78" y="61" width="1" height="1"/></g><rect fill="#03aabf" width="1" height="1" x="30" y="55"/><g fill="#03a9bc"><rect height="1" x="72" y="32" width="1"/><rect x="31" y="48" width="1" height="1"/></g><g fill="#00a1bc"><rect x="66" y="34" width="1" height="1"/><rect x="93" y="56" width="1" height="1"/><rect x="58" y="62" width="1" height="1"/></g><g fill="#0aa"><rect x="57" y="27" width="1" height="1"/><rect x="39" y="30" width="1" height="1"/><rect x="12" y="31" width="1" height="1"/><rect width="1" height="1" x="78" y="31"/><rect height="1" x="84" y="31" width="1"/><rect x="36" y="37" width="1" height="1"/><rect x="34" y="38" width="1" height="1"/><rect x="28" y="41" width="1" height="1"/><rect height="1" x="77" y="42" width="1"/><rect width="1" height="1" x="24" y="43"/><rect y="51" width="1" height="1" x="51"/><rect x="83" y="52" width="1" height="1"/><rect x="45" y="53" width="1" height="1"/><rect x="74" y="53" width="1" height="1"/><rect x="29" y="55" width="1" height="1"/><rect y="61" width="1" height="1" x="101"/><rect y="62" width="1" height="1" x="63"/></g><g fill="#02aabc"><rect width="1" height="1" x="66" y="28"/><rect height="1" x="29" y="34" width="1"/><rect y="40" width="1" height="1" x="83"/><rect y="41" width="1" height="1" x="44"/><rect y="41" width="1" height="1" x="83"/><rect x="49" y="45" width="1" height="1"/><rect width="1" height="1" x="30" y="47"/></g><g fill="#02acbe"><rect x="34" y="37" width="1" height="1"/><rect x="50" y="51" width="1" height="1"/><rect x="32" y="57" width="1" height="1"/><rect height="1" x="67" y="60" width="1"/></g><g fill="#0ab"><rect width="1" height="1" x="16" y="27"/><rect height="1" x="49" y="31" width="1"/><rect x="48" y="32" width="1" height="1"/><rect x="73" y="36" width="1" height="1"/><rect width="1" height="1" x="77" y="43"/><rect height="1" x="50" y="49" width="1"/><rect x="83" y="51" width="1" height="1"/><rect y="59" width="1" height="1" x="11"/><rect width="1" height="1" x="50" y="59"/></g><g fill="#0092b6"><rect x="17" y="27" width="1" height="1"/><rect x="37" y="30" width="1" height="1"/><rect y="37" width="1" height="1" x="72"/><rect width="1" height="1" x="32" y="39"/><rect x="30" y="40" width="1" height="1"/><rect width="1" height="1" x="35" y="52"/></g><g fill="#02a9bc"><rect width="1" height="1" x="29" y="40"/><rect x="80" y="61" width="1" height="1"/></g><rect fill="#02acbf" x="86" y="61" width="1" height="1"/><g fill="#02abbe"><rect width="1" height="1" x="17" y="28"/><rect x="57" y="28" width="1" height="1"/><rect x="54" y="29" width="1" height="1"/><rect y="29" width="1" height="1" x="56"/><rect y="29" width="1" height="1" x="80"/><rect height="1" x="13" y="30" width="1"/><rect y="30" width="1" height="1" x="53"/><rect y="30" width="1" height="1" x="68"/><rect height="1" x="69" y="30" width="1"/><rect x="36" y="31" width="1" height="1"/><rect height="1" x="37" y="31" width="1"/><rect width="1" height="1" x="52" y="31"/><rect width="2" height="1" x="60" y="31"/><rect width="1" height="1" x="35" y="32"/><rect x="36" y="32" width="2" height="1"/><rect x="49" y="32" width="1" height="1"/><rect x="55" y="32" width="1" height="1"/><rect x="58" y="32" width="1" height="1"/><rect width="1" height="1" x="63" y="32"/><rect x="70" y="32" width="2" height="1"/><rect x="83" y="32" width="1" height="1"/><rect y="33" width="1" height="1" x="39"/><rect width="1" height="1" x="54" y="33"/><rect y="33" width="1" height="1" x="66"/><rect y="33" width="1" height="1" x="67"/><rect x="71" y="33" width="1" height="1"/><rect y="33" width="1" height="1" x="72"/><rect x="30" y="34" width="1" height="1"/><rect y="34" width="1" height="1" x="53"/><rect x="68" y="34" width="1" height="1"/><rect height="1" x="69" y="34" width="1"/><rect y="34" width="1" height="1" x="72"/><rect x="17" y="35" width="1" height="1"/><rect y="35" width="1" height="1" x="27"/><rect x="28" y="35" width="1" height="1"/><rect height="1" x="36" y="35" width="1"/><rect height="1" x="51" y="35" width="1"/><rect x="52" y="35" width="1" height="1"/><rect x="69" y="35" width="1" height="1"/><rect width="1" height="1" x="70" y="35"/><rect height="1" x="72" y="35" width="1"/><rect height="1" x="27" y="36" width="2"/><rect y="36" width="1" height="1" x="36"/><rect y="36" width="1" height="1" x="47"/><rect height="2" x="79" y="36" width="1"/><rect x="82" y="36" width="1" height="1"/><rect width="1" height="1" x="25" y="37"/><rect width="1" height="2" x="82" y="37"/><rect x="12" y="38" width="1" height="1"/><rect x="17" y="38" width="1" height="1"/><rect x="22" y="38" width="2" height="1"/><rect height="1" x="32" y="38" width="1"/><rect y="38" width="1" height="1" x="45"/><rect height="1" x="79" y="38" width="1"/><rect height="1" x="13" y="39" width="1"/><rect width="1" height="1" x="17" y="39"/><rect x="45" y="39" width="1" height="1"/><rect width="1" height="1" x="50" y="39"/><rect y="39" width="1" height="1" x="82"/><rect width="1" height="1" x="13" y="40"/><rect x="17" y="40" width="1" height="1"/><rect x="28" y="40" width="1" height="1"/><rect x="78" y="40" width="1" height="1"/><rect x="24" y="41" width="1" height="1"/><rect height="1" x="78" y="41" width="1"/><rect height="1" x="24" y="42" width="1"/><rect height="1" x="45" y="42" width="1"/><rect y="43" width="1" height="1" x="12"/><rect height="1" x="22" y="43" width="1"/><rect x="45" y="43" width="1" height="1"/><rect x="48" y="43" width="1" height="1"/><rect y="45" width="1" height="1" x="12"/><rect y="45" width="1" height="2" x="27"/><rect width="1" height="1" x="44" y="45"/><rect x="49" y="46" width="1" height="1"/><rect y="47" width="1" height="1" x="25"/><rect x="45" y="47" width="1" height="1"/><rect y="48" width="2" height="1" x="29"/><rect y="49" width="1" height="1" x="26"/><rect width="1" height="1" x="26" y="50"/><rect x="31" y="50" width="1" height="1"/><rect y="51" width="1" height="1" x="27"/><rect height="1" x="33" y="51" width="1"/><rect width="1" height="1" x="45" y="51"/><rect width="1" height="1" x="46" y="51"/><rect x="49" y="51" width="1" height="1"/><rect height="1" x="29" y="52" width="1"/><rect x="33" y="52" width="1" height="1"/><rect width="1" height="1" x="34" y="53"/><rect x="35" y="53" width="1" height="1"/><rect width="1" height="1" x="72" y="53"/><rect x="29" y="54" width="1" height="1"/><rect y="54" width="1" height="1" x="51"/><rect y="54" width="1" height="1" x="52"/><rect height="1" x="31" y="55" width="1"/><rect width="1" height="1" x="35" y="55"/><rect y="55" width="1" height="1" x="48"/><rect x="52" y="55" width="1" height="1"/><rect x="53" y="55" width="1" height="1"/><rect x="16" y="56" width="1" height="1"/><rect x="32" y="56" width="1" height="1"/><rect height="1" x="37" y="56" width="1"/><rect height="1" x="48" y="56" width="1"/><rect x="49" y="56" width="1" height="1"/><rect height="1" x="37" y="57" width="1"/><rect y="57" width="1" height="1" x="49"/><rect x="55" y="57" width="1" height="1"/><rect x="56" y="57" width="1" height="1"/><rect height="1" x="59" y="57" width="1"/><rect x="61" y="57" width="1" height="1"/><rect y="57" width="1" height="1" x="70"/><rect x="72" y="57" width="1" height="1"/><rect x="15" y="58" width="1" height="1"/><rect x="33" y="58" width="1" height="1"/><rect x="51" y="58" width="1" height="1"/><rect x="70" y="58" width="1" height="1"/><rect x="15" y="59" width="1" height="1"/><rect x="34" y="59" width="1" height="1"/><rect x="37" y="59" width="1" height="1"/><rect x="35" y="60" width="1" height="1"/><rect x="55" y="60" width="1" height="1"/><rect x="56" y="60" width="1" height="1"/><rect x="64" y="60" width="1" height="1"/><rect x="78" y="60" width="1" height="1"/><rect y="60" width="1" height="1" x="81"/><rect x="82" y="60" width="1" height="1"/><rect x="83" y="60" width="1" height="1"/><rect height="1" x="96" y="60" width="1"/><rect y="60" width="1" height="1" x="97"/><rect x="13" y="61" width="1" height="1"/><rect x="55" y="61" width="1" height="1"/><rect x="57" y="61" width="1" height="1"/><rect height="1" x="64" y="61" width="1"/><rect y="61" width="1" height="1" x="87"/><rect x="90" y="61" width="1" height="1"/><rect height="1" x="91" y="61" width="1"/><rect x="92" y="61" width="1" height="1"/><rect y="61" width="1" height="1" x="93"/></g><g fill="#02aabe"><rect y="28" width="1" height="1" x="83"/><rect height="1" x="13" y="29" width="1"/><rect x="67" y="29" width="1" height="1"/><rect width="1" height="1" x="68" y="29"/><rect height="1" x="79" y="30" width="1"/><rect x="32" y="33" width="1" height="1"/><rect height="1" x="55" y="33" width="1"/><rect width="1" height="1" x="83" y="33"/><rect height="1" x="73" y="34" width="1"/><rect x="83" y="34" width="1" height="1"/><rect x="26" y="36" width="1" height="1"/><rect height="1" x="70" y="36" width="1"/><rect width="1" height="1" x="17" y="37"/><rect width="1" height="1" x="24" y="37"/><rect y="38" width="1" height="1" x="50"/><rect x="83" y="38" width="1" height="1"/><rect width="1" height="1" x="83" y="39"/><rect width="1" height="1" x="26" y="41"/><rect x="24" y="47" width="1" height="1"/><rect x="49" y="49" width="1" height="1"/><rect y="53" width="1" height="1" x="46"/><rect x="70" y="53" width="1" height="1"/><rect height="1" x="16" y="55" width="1"/><rect width="1" height="1" x="55" y="56"/><rect x="73" y="56" width="1" height="1"/><rect height="1" x="60" y="57" width="1"/><rect x="62" y="57" width="1" height="1"/><rect y="60" width="1" height="1" x="16"/><rect width="1" height="1" x="65" y="61"/><rect height="1" x="88" y="61" width="1"/><rect x="94" y="61" width="1" height="1"/><rect width="1" height="1" x="99" y="61"/></g><g fill="#00a7bb"><rect x="82" y="27" width="1" height="1"/><rect y="32" width="1" height="1" x="33"/><rect x="33" y="50" width="1" height="1"/><rect width="1" height="1" x="70" y="59"/></g><g fill="#02a9be"><rect height="1" x="56" y="33" width="1"/><rect y="34" width="1" height="1" x="47"/><rect width="1" height="1" x="54" y="34"/><rect x="67" y="34" width="1" height="1"/><rect y="42" width="1" height="1" x="44"/><rect x="29" y="46" width="1" height="1"/><rect height="1" x="44" y="48" width="1"/><rect height="1" x="38" y="60" width="1"/></g><rect x="57" y="33" width="1" fill="#00aab9" height="1"/><rect width="1" height="1" x="24" fill="#03abbf" y="45"/><g fill="#00a3b8"><rect x="83" y="49" width="1" height="1"/><rect height="1" x="34" y="51" width="1"/><rect y="56" width="1" height="1" x="63"/><rect x="35" y="61" width="1" height="1"/></g><g fill="#00a8b9"><rect y="52" width="1" height="1" x="17"/><rect x="48" y="57" width="1" height="1"/><rect x="77" y="59" width="1" height="1"/></g><g fill="#00aab6"><rect x="79" y="27" width="1" height="1"/><rect height="1" x="84" y="30" width="1"/><rect y="35" width="1" height="1" x="26"/><rect x="73" y="52" width="1" height="1"/></g><g fill="#03aabe"><rect height="1" x="34" y="32" width="1"/><rect x="48" y="33" width="1" height="1"/><rect x="73" y="35" width="1" height="1"/><rect y="41" width="1" height="1" x="12"/><rect width="1" height="1" x="44" y="44"/><rect width="1" height="1" x="44" y="47"/><rect width="1" height="1" x="17" y="48"/><rect x="65" y="56" width="1" height="1"/><rect y="61" width="1" height="1" x="56"/></g></svg>